<?xml version="1.0" encoding="UTF-8" standalone="no"?>
<svg width="214px" height="214px" viewBox="0 0 214 214" version="1.1" xmlns="http://www.w3.org/2000/svg" xmlns:xlink="http://www.w3.org/1999/xlink">
    <!-- Generator: Sketch 43.2 (39069) - http://www.bohemiancoding.com/sketch -->
    <title>you-win</title>
    <desc>Created with Sketch.</desc>
    <defs></defs>
    <g id="Page-1" stroke="none" stroke-width="1" fill="none" fill-rule="evenodd" opacity="0.7">
        <g id="you-win">
            <path d="M107,214 C47.9055318,214 0,166.094468 0,107 C0,47.9055318 47.9055318,0 107,0 C166.094468,0 214,47.9055318 214,107 C214,166.094468 166.094468,214 107,214 Z M107,208 C162.78076,208 208,162.78076 208,107 C208,51.2192403 162.78076,6 107,6 C51.2192403,6 6,51.2192403 6,107 C6,162.78076 51.2192403,208 107,208 Z" id="Face" fill="#FFFFFF" fill-rule="nonzero"></path>
            <path d="M37,92 C37,79.8497355 46.8497355,70 59,70 C71.1502645,70 81,79.8497355 81,92" id="Combined-Shape" stroke="#FFFFFF" stroke-width="6" stroke-linecap="round" stroke-linejoin="round"></path>
            <path d="M134,92 C134,79.8497355 143.849736,70 156,70 C168.150264,70 178,79.8497355 178,92" id="Combined-Shape-Copy" stroke="#FFFFFF" stroke-width="6" stroke-linecap="round" stroke-linejoin="round"></path>
            <path d="M44,138 C44.3911947,161.794025 72.6694279,181 107.495892,181 C142.322355,181 170.600589,161.794025 170.991783,138 L44,138 Z" id="Combined-Shape" stroke="#FFFFFF" stroke-width="6" stroke-linecap="round" stroke-linejoin="round"></path>
        </g>
    </g>
</svg>